<svg xmlns="http://www.w3.org/2000/svg" version="1" viewBox="0 0 410 410">
  <path fill="#76a9ea" d="M404 74l-29 10c11-10 19-23 24-37 1-4-3-8-7-6a163 163 0 0 1-46 18l-8-2a88 88 0 0 0-86-18c-29 9-51 32-58 62-3 10-3 21-2 32l-1 3a3 3 0 0 1-3 1c-62-6-119-36-159-85-2-3-6-3-7 0a88 88 0 0 0 14 108l-20-8c-3-2-7 0-7 4-1 35 20 67 52 81a79 79 0 0 1-17-1c-4-1-7 3-6 6 11 32 38 55 70 60-27 18-58 28-91 28H7c-3 0-6 2-7 5s1 6 4 8a246 246 0 0 0 226 11 251 251 0 0 0 139-221v-2c0-4 2-9 5-11 14-11 26-24 35-39 3-4-1-9-5-7z"/>
</svg>
