<?xml version="1.0" encoding="UTF-8" standalone="no"?>
<!-- Generator: Adobe Illustrator 16.0.4, SVG Export Plug-In . SVG Version: 6.00 Build 0)  -->

<svg
   xmlns:dc="http://purl.org/dc/elements/1.1/"
   xmlns:cc="http://creativecommons.org/ns#"
   xmlns:rdf="http://www.w3.org/1999/02/22-rdf-syntax-ns#"
   xmlns:svg="http://www.w3.org/2000/svg"
   xmlns="http://www.w3.org/2000/svg"
   xmlns:sodipodi="http://sodipodi.sourceforge.net/DTD/sodipodi-0.dtd"
   xmlns:inkscape="http://www.inkscape.org/namespaces/inkscape"
   version="1.1"
   id="Layer_1"
   x="0px"
   y="0px"
   width="64"
   height="64"
   viewBox="0 0 64 64"
   enable-background="new 0 0 124 33"
   xml:space="preserve"
   inkscape:version="0.91 r13725"
   sodipodi:docname="icon_paypal.svg"><metadata
     id="metadata27"><rdf:RDF><cc:Work
         rdf:about=""><dc:format>image/svg+xml</dc:format><dc:type
           rdf:resource="http://purl.org/dc/dcmitype/StillImage" /><dc:title></dc:title></cc:Work></rdf:RDF></metadata><defs
     id="defs25" /><sodipodi:namedview
     pagecolor="#ffffff"
     bordercolor="#666666"
     borderopacity="1"
     objecttolerance="10"
     gridtolerance="10"
     guidetolerance="10"
     inkscape:pageopacity="0"
     inkscape:pageshadow="2"
     inkscape:window-width="1920"
     inkscape:window-height="1050"
     id="namedview23"
     showgrid="false"
     inkscape:zoom="7.915033964"
     inkscape:cx="25.37425563"
     inkscape:cy="24.83033061"
     inkscape:window-x="0"
     inkscape:window-y="30"
     inkscape:window-maximized="1"
     inkscape:current-layer="Layer_1" /><path
     d="m 21.20450542,59.50010399 1.02242881,-6.49428599 -2.27749438,-0.0527832 -10.875280111,0 7.557762521,-47.921261915 c 0.0234592,-0.144664981 0.0997015,-0.279555328 0.21113253,-0.375347024 0.11143105,-0.09579169 0.254141,-0.148574875 0.40271574,-0.148574875 l 18.33725101,0 c 6.08765455,0 10.28880087,1.266796302 12.48223324,3.767155052 1.0282936,1.172959539 1.68319542,2.398702252 1.99989422,3.747605722 0.33233823,1.41537118 0.33820302,3.10638785 0.0136845,5.16884171 l -0.0234592,0.1505298 0,1.32153442 1.02829361,0.5825699 c 0.86603434,0.45940915 1.55416999,0.98528601 2.08200131,1.58740524 0.87971886,1.00288041 1.44860373,2.27749643 1.68906022,3.78865932 0.24827622,1.55417138 0.16616912,3.40353759 -0.24045649,5.49727037 -0.4691834,2.40847691 -1.22769655,4.50611956 -2.2520803,6.22255035 -0.94227665,1.58154045 -2.14260416,2.89330019 -3.56774873,3.90986513 -1.36063184,0.96573669 -2.97735962,1.6988364 -4.80521993,2.16802021 -1.77116731,0.46136408 -3.79061084,0.69400106 -6.00554745,0.69400106 l -1.4270995,0 c -1.02047387,0 -2.01162379,0.36752732 -2.78968627,1.02633959 -0.78001739,0.67249681 -1.29611912,1.59131512 -1.45446851,2.59615045 l -0.10752121,0.58452484 -1.80635606,11.44613017 -0.0821071,0.4203105 c -0.0215042,0.13293541 -0.0586479,0.19940311 -0.11338598,0.24436657 -0.0488732,0.0410535 -0.11925078,0.0684226 -0.18767336,0.0684226 l -8.81087317,0 z"
     id="path15"
     inkscape:connector-curvature="0"
     style="fill:#253b80" /><path
     d="m 52.05722349,17.49446797 0,0 0,0 c -0.054738,0.34993293 -0.11729585,0.70768559 -0.18767336,1.07521291 C 49.45130072,30.9854576 41.17803352,35.27457964 30.61163249,35.27457964 l -5.3799696,0 c -1.29220926,0 -2.38110572,0.93836764 -2.5824636,2.21298367 l 0,0 0,0 -2.75449751,17.4692774 -0.78001739,4.95184418 C 18.98370402,60.74539602 19.62883119,61.5 20.4733613,61.5 l 9.54201729,0 c 1.12995001,0 2.08982103,-0.82107169 2.26771974,-1.93538324 l 0.0938367,-0.48482327 1.79658142,-11.40116671 0.11534091,-0.62557844 c 0.17594377,-1.11822142 1.13776973,-1.93929309 2.26771974,-1.93929309 l 1.4270995,0 c 9.24486781,0 16.48202167,-3.75347053 18.59725681,-14.61507586 0.88362873,-4.53739848 0.42617491,-8.3260578 -1.91192234,-10.99063088 -0.70768495,-0.80347729 -1.58544888,-1.47010928 -2.61178756,-2.01358054 z"
     id="path17"
     inkscape:connector-curvature="0"
     style="fill:#179bd7" /><path
     d="m 49.52754302,16.48572277 c -0.36948193,-0.10752129 -0.75069343,-0.20526792 -1.14167959,-0.29323989 -0.3929411,-0.0860171 -0.79565685,-0.1622594 -1.21010218,-0.2287271 -1.45055866,-0.23459192 -3.0399174,-0.34602307 -4.74266215,-0.34602307 l -14.37265132,0 c -0.35384248,0 -0.69009058,0.0801523 -0.99114992,0.22481725 -0.66272155,0.318654 -1.15536411,0.94618736 -1.27461489,1.71447585 l -3.05751179,19.36556199 -0.0879719,0.56497551 c 0.20135788,-1.27461603 1.29025434,-2.21298367 2.5824636,-2.21298367 l 5.3799696,0 c 10.56640103,0 18.83966823,-4.29107697 21.25791764,-16.70489876 0.0723324,-0.36752732 0.1329353,-0.72527998 0.18767336,-1.07521291 -0.61189335,-0.3245188 -1.27461488,-0.60211922 -1.98816464,-0.83866607 -0.17594377,-0.058648 -0.35775234,-0.11534102 -0.54151583,-0.17007913 z"
     id="path19"
     inkscape:connector-curvature="0"
     style="fill:#222d65" /><path
     d="m 25.79468297,17.55702581 c 0.11925078,-0.76828849 0.61189334,-1.39582185 1.27461489,-1.71252092 0.30301427,-0.14466501 0.63730744,-0.22481725 0.99114992,-0.22481725 l 14.37265132,0 c 1.70274475,0 3.29210349,0.11143116 4.74266215,0.34602307 0.41444533,0.0664678 0.81716108,0.14271008 1.21010218,0.22872711 0.39098616,0.087972 0.77219766,0.1857186 1.14167959,0.29323989 0.18376349,0.054738 0.36557206,0.11143116 0.54347076,0.16812419 0.71354975,0.23654685 1.3762713,0.5161022 1.98816464,0.83866607 0.71941454,-4.58822673 -0.005865,-7.712208964 -2.486672,-10.540996385 C 46.83755822,3.83926401 41.90135792,2.506 35.58497647,2.506 l -18.33725101,0 c -1.29025433,0 -2.39088038,0.938367631 -2.59028332,2.214938596 L 7.019527459,53.13484355 c -0.15052967,0.95791697 0.58843417,1.82199716 1.55416999,1.82199716 l 11.321004331,0 2.8424694,-18.03425291 3.05751179,-19.36556199 z"
     id="path21"
     inkscape:connector-curvature="0"
     style="fill:#253b80" /></svg>