<svg xmlns="http://www.w3.org/2000/svg" viewBox="0 0 551 551">
  <linearGradient id="a" x1="275.5" x2="275.5" y1="4.6" y2="549.7" gradientTransform="matrix(1 0 0 -1 0 554)" gradientUnits="userSpaceOnUse">
    <stop offset="0" stop-color="#e09b3d"/>
    <stop offset=".3" stop-color="#c74c4d"/>
    <stop offset=".6" stop-color="#c21975"/>
    <stop offset="1" stop-color="#7024c4"/>
  </linearGradient>
  <path fill="url(#a)" d="M386.9 0H164.2A164.3 164.3 0 0 0 0 164.2v222.7C0 477.4 73.6 551 164.2 551h222.7c90.5 0 164.1-73.6 164.1-164V164.2C551 73.6 477.4 0 387 0zm108.7 386.9c0 60-48.7 108.7-108.7 108.7H164.2c-60 0-108.8-48.7-108.8-108.7V164.2c0-60 48.7-108.8 108.8-108.8h222.7c60 0 108.7 48.7 108.7 108.8v222.7z"/>
  <linearGradient id="b" x1="275.5" x2="275.5" y1="4.6" y2="549.7" gradientTransform="matrix(1 0 0 -1 0 554)" gradientUnits="userSpaceOnUse">
    <stop offset="0" stop-color="#e09b3d"/>
    <stop offset=".3" stop-color="#c74c4d"/>
    <stop offset=".6" stop-color="#c21975"/>
    <stop offset="1" stop-color="#7024c4"/>
  </linearGradient>
  <path fill="url(#b)" d="M275.5 133C197 133 133 197 133 275.5S197 418 275.5 418 418 354.1 418 275.5 354.1 133 275.5 133zm0 229.6a87 87 0 1 1 0-174.2 87 87 0 0 1 0 174.2z"/>
  <linearGradient id="c" x1="418.3" x2="418.3" y1="4.6" y2="549.7" gradientTransform="matrix(1 0 0 -1 0 554)" gradientUnits="userSpaceOnUse">
    <stop offset="0" stop-color="#e09b3d"/>
    <stop offset=".3" stop-color="#c74c4d"/>
    <stop offset=".6" stop-color="#c21975"/>
    <stop offset="1" stop-color="#7024c4"/>
  </linearGradient>
  <circle cx="418.3" cy="134.1" r="34.1" fill="url(#c)"/>
</svg>
