<svg xmlns="http://www.w3.org/2000/svg" xmlns:inkscape="http://www.inkscape.org/namespaces/inkscape" xmlns:sodipodi="http://sodipodi.sourceforge.net/DTD/sodipodi-0.dtd" width="64" height="64" version="1" inkscape:version="0.91 r13725" sodipodi:docname="icon_paypal.svg">
  <sodipodi:namedview bordercolor="#666666" borderopacity="1" gridtolerance="10" guidetolerance="10" objecttolerance="10" pagecolor="#ffffff" showgrid="false" inkscape:current-layer="Layer_1" inkscape:cx="25" inkscape:cy="25" inkscape:pageopacity="0" inkscape:pageshadow="2" inkscape:window-height="1050" inkscape:window-maximized="1" inkscape:window-width="1920" inkscape:window-x="0" inkscape:window-y="30" inkscape:zoom="8"/>
  <path fill="#253b80" d="M21 60l1-7H9l8-48h19c6 0 10 1 12 3l2 4v7h1l2 2 2 4v5l-3 6a13 13 0 0 1-8 6l-6 1h-1a4 4 0 0 0-5 4l-2 12v1h-9z" inkscape:connector-curvature="0"/>
  <path fill="#179bd7" d="M52 17v2c-3 12-11 16-21 16h-6l-2 2-3 18-1 5 1 2h10l2-2v-1l2-11v-1c0-1 1-2 3-2h1c9 0 16-4 19-15 0-4 0-8-2-10l-3-3z" inkscape:connector-curvature="0"/>
  <path fill="#222d65" d="M50 16a19 19 0 0 0-3 0H28a2 2 0 0 0-2 2l-3 19 2-2h6c10 0 18-4 21-16v-2a13 13 0 0 0-2-1z" inkscape:connector-curvature="0"/>
  <path fill="#253b80" d="M26 18a2 2 0 0 1 2-2h14a30 30 0 0 1 8 1h2c1-4 0-7-2-10-3-3-8-4-14-4H17c-1 0-2 0-2 2L7 53l2 2h11l3-18 3-19z" inkscape:connector-curvature="0"/>
</svg>
